<?xml version="1.0" encoding="UTF-8"?>
<!-- Generated by Pixelmator Pro 3.6.5 -->
<svg width="2000" height="2000" viewBox="0 0 2000 2000" xmlns="http://www.w3.org/2000/svg">
    <path id="path1" fill="#f4c23f" stroke="none" d="M 1183 478 C 1179.5 476.800049 1176 475.900024 1172.5 475 C 1165.582275 473.216309 1158.571655 471.814209 1151.5 470.800049 L 1147.900024 470.199951 C 1134.045044 468.317749 1123.134155 457.447754 1121.199951 443.599976 C 1121.099976 442.400024 1120.900024 441.199951 1120.699951 439.900024 C 1119.675903 432.863037 1118.273926 425.88623 1116.5 419 C 1115.56665 415.533366 1114.56665 412.033366 1113.5 408.5 C 1112.376587 404.93689 1111.074951 401.432495 1109.599976 398 C 1108 401.5 1106.800049 405 1105.599976 408.5 C 1104.400024 412 1103.5 415.5 1102.599976 419 C 1100.900024 426 1099.5 433 1098.400024 439.900024 C 1098.199951 441.099976 1098.099976 442.300049 1097.900024 443.400024 C 1096.00708 457.286621 1085.08667 468.207031 1071.199951 470.099976 L 1067.599976 470.599976 C 1060.599976 471.666626 1053.599976 473.06665 1046.599976 474.800049 C 1043.099976 475.699951 1039.699951 476.699951 1036.199951 477.900024 C 1032.620239 479.01355 1029.113403 480.349487 1025.699951 481.900024 C 1029.113403 483.450439 1032.620239 484.786377 1036.199951 485.900024 C 1039.699951 487.099976 1043.099976 488.099976 1046.599976 489 C 1053.599976 490.666667 1060.599976 492.06665 1067.599976 493.199951 L 1071.099976 493.699951 C 1084.986694 495.593018 1095.906982 506.513306 1097.800049 520.400024 C 1097.900024 521.5 1098.099976 522.699951 1098.300049 523.900024 C 1099.324097 530.937012 1100.726074 537.913696 1102.5 544.800049 C 1103.400024 548.300049 1104.400024 551.800049 1105.599976 555.300049 C 1106.713623 558.879883 1108.049561 562.386719 1109.599976 565.800049 C 1111.199951 562.300049 1112.400024 558.800049 1113.599976 555.300049 C 1114.800049 551.800049 1115.699951 548.300049 1116.599976 544.800049 C 1118.400024 537.800049 1119.800049 530.800049 1120.900024 523.900024 C 1121 522.699951 1121.199951 521.5 1121.400024 520.300049 C 1123.25 506.429199 1134.13623 495.501953 1148 493.599976 L 1151.5 493 C 1158.571655 491.985718 1165.582275 490.583618 1172.5 488.800049 C 1176 487.900024 1179.5 487 1183 485.800049 C 1186.578125 484.720947 1190.085083 483.418457 1193.5 481.900024 C 1190.085083 480.381592 1186.578125 479.078979 1183 478 Z"/>
    <path id="path2" fill="#f4c23f" stroke="none" d="M 453 669.5 C 450.866659 668.766683 448.766663 668.166667 446.700012 667.699951 C 442.618591 666.627197 438.478271 665.792358 434.299988 665.199951 L 432.100006 664.900024 C 423.872559 663.725098 417.422943 657.234619 416.299988 649 L 416 646.900024 C 415.299988 642.699951 414.5 638.599976 413.5 634.400024 L 411.700012 628.199951 C 411.031738 626.052124 410.230194 623.947998 409.299988 621.900024 C 408.399994 624 407.700012 626.099976 407 628.199951 C 406.299988 630.300049 405.700012 632.300049 405.200012 634.400024 C 404.200012 638.599976 403.299988 642.699951 402.700012 646.900024 L 402.399994 649 C 401.257172 657.24353 394.750549 663.709229 386.5 664.800049 L 384.399994 665.099976 C 380.200012 665.699951 376.100006 666.599976 371.899994 667.599976 L 365.700012 669.400024 C 363.594452 670.095703 361.525177 670.896729 359.5 671.800049 C 361.507019 672.746338 363.578949 673.54834 365.700012 674.199951 C 367.799988 674.900024 369.799988 675.5 371.899994 676 C 376.015137 677.072998 380.188721 677.907715 384.399994 678.5 L 386.5 678.800049 C 394.727448 679.974854 401.177032 686.465332 402.299988 694.699951 L 402.600006 696.800049 C 403.200012 700.900024 404.100006 705.099976 405.100006 709.199951 L 406.899994 715.5 C 407.600006 717.5 408.399994 719.599976 409.299988 721.699951 C 410.213043 719.678955 411.014252 717.609131 411.700012 715.5 C 412.433329 713.366699 413.033325 711.266683 413.5 709.199951 C 414.572876 705.118652 415.407623 700.978271 416 696.800049 L 416.299988 694.599976 C 417.49707 686.365234 423.96521 679.896973 432.200012 678.699951 C 432.910583 678.69873 433.617462 678.597656 434.299988 678.400024 C 438.478271 677.807617 442.618591 676.9729 446.700012 675.900024 L 453 674.199951 C 455.1091 673.51416 457.178894 672.713013 459.200012 671.800049 C 457.100006 670.900024 455 670.199951 453 669.5 Z"/>
    <path id="path3" fill="#f4c23f" stroke="none" d="M 1465.699951 416.699951 C 1465.699951 434.207397 1451.507446 448.400024 1434 448.400024 C 1416.492554 448.400024 1402.300049 434.207397 1402.300049 416.699951 C 1402.300049 399.192627 1416.492554 385 1434 385 C 1451.507446 385 1465.699951 399.192627 1465.699951 416.699951 Z"/>
    <path id="path4" fill="#f8881b" stroke="none" d="M 1025.699951 1390.300049 L 1025.699951 1510.400024 C 1025.699951 1560.900024 1145.599976 1601.800049 1293.599976 1601.800049 C 1441.599976 1601.800049 1561.5 1560.900024 1561.5 1510.400024 L 1561.5 1390.300049 Z"/>
    <path id="path5" fill="#f08000" stroke="none" d="M 1293.599976 1574 C 1145.599976 1574 1025.699951 1533.099976 1025.699951 1482.599976 L 1025.699951 1510.400024 C 1025.699951 1560.900024 1145.599976 1601.800049 1293.599976 1601.800049 C 1441.599976 1601.800049 1561.5 1560.900024 1561.5 1510.400024 L 1561.5 1482.599976 C 1561.5 1533.099976 1441.599976 1574 1293.599976 1574 Z"/>
    <path id="path6" fill="#f08000" stroke="none" d="M 1429.800049 1589.099976 C 1437.599976 1587.5 1445.199951 1585.800049 1452.5 1584 L 1452.5 1390.300049 L 1429.800049 1390.300049 Z"/>
    <path id="path7" fill="#f08000" stroke="none" d="M 1339 1600.5 C 1346.699951 1600 1354.199951 1599.5 1361.699951 1598.800049 L 1361.699951 1390.300049 L 1339 1390.300049 Z"/>
    <path id="path8" fill="#f08000" stroke="none" d="M 1520.599976 1559 C 1528.688599 1554.681519 1536.297607 1549.519531 1543.300049 1543.599976 L 1543.300049 1390.300049 L 1520.599976 1390.300049 Z"/>
    <path id="path9" fill="#f08000" stroke="none" d="M 1157.400024 1589.099976 C 1164.699951 1590.599976 1172.300049 1592 1180.099976 1593.199951 L 1180.099976 1390.300049 L 1157.400024 1390.300049 Z"/>
    <path id="path10" fill="#f08000" stroke="none" d="M 1066.599976 1559 C 1073.951172 1562.94812 1081.531372 1566.454346 1089.300049 1569.5 L 1089.300049 1390.300049 L 1066.599976 1390.300049 Z"/>
    <path id="path11" fill="#f08000" stroke="none" d="M 1248.199951 1600.5 C 1255.699951 1600.900024 1263.199951 1601.300049 1270.900024 1601.5 L 1270.900024 1390.300049 L 1248.199951 1390.300049 Z"/>
    <path id="path12" fill="#f4a93f" stroke="none" d="M 1561.5 1390.300049 C 1561.5 1440.778809 1441.557129 1481.699951 1293.599976 1481.699951 C 1145.642944 1481.699951 1025.699951 1440.778809 1025.699951 1390.300049 C 1025.699951 1339.821167 1145.642944 1298.900024 1293.599976 1298.900024 C 1441.557129 1298.900024 1561.5 1339.821167 1561.5 1390.300049 Z"/>
    <path id="path13" fill="#f4c23f" stroke="none" d="M 1293.599976 1448.099976 C 1229.099976 1448.099976 1167.900024 1440 1121.400024 1425.300049 C 1074.900024 1410.599976 1060.699951 1394.400024 1059.300049 1390.300049 C 1060.699951 1386.300049 1074.199951 1370.400024 1121.400024 1355.400024 C 1168.599976 1340.400024 1229.099976 1332.5 1293.599976 1332.5 C 1358.099976 1332.5 1419.199951 1340.699951 1465.699951 1355.400024 C 1512.199951 1370.099976 1526.5 1386.300049 1527.800049 1390.300049 C 1526.5 1394.400024 1513 1410.300049 1465.699951 1425.300049 C 1418.400024 1440.300049 1358.099976 1448.099976 1293.599976 1448.099976 Z"/>
    <path id="path14" fill="#f8881b" stroke="none" d="M 1025.699951 1272.5 L 1025.699951 1392.599976 C 1025.699951 1443 1145.599976 1484 1293.599976 1484 C 1441.599976 1484 1561.5 1443 1561.5 1392.599976 L 1561.5 1272.5 Z"/>
    <path id="path15" fill="#f08000" stroke="none" d="M 1293.599976 1456.199951 C 1145.599976 1456.199951 1025.699951 1415.300049 1025.699951 1364.800049 L 1025.699951 1392.599976 C 1025.699951 1443 1145.599976 1484 1293.599976 1484 C 1441.599976 1484 1561.5 1443 1561.5 1392.599976 L 1561.5 1364.800049 C 1561.5 1415.300049 1441.599976 1456.199951 1293.599976 1456.199951 Z"/>
    <path id="path16" fill="#f08000" stroke="none" d="M 1429.800049 1471.300049 C 1437.599976 1469.699951 1445.199951 1468 1452.5 1466.199951 L 1452.5 1272.5 L 1429.800049 1272.5 Z"/>
    <path id="path17" fill="#f08000" stroke="none" d="M 1339 1482.699951 C 1346.699951 1482.199951 1354.199951 1481.699951 1361.699951 1481 L 1361.699951 1272.5 L 1339 1272.5 Z"/>
    <path id="path18" fill="#f08000" stroke="none" d="M 1520.599976 1441.099976 C 1528.706055 1436.849854 1536.318726 1431.718872 1543.300049 1425.800049 L 1543.300049 1272.5 L 1520.599976 1272.5 Z"/>
    <path id="path19" fill="#f08000" stroke="none" d="M 1157.400024 1471.300049 C 1164.699951 1472.800049 1172.300049 1474.099976 1180.099976 1475.400024 L 1180.099976 1272.5 L 1157.400024 1272.5 Z"/>
    <path id="path20" fill="#f08000" stroke="none" d="M 1066.599976 1441.099976 C 1073.948608 1445.08252 1081.528809 1448.622192 1089.300049 1451.699951 L 1089.300049 1272.5 L 1066.599976 1272.5 Z"/>
    <path id="path21" fill="#f08000" stroke="none" d="M 1248.199951 1482.699951 C 1255.699951 1483.099976 1263.199951 1483.400024 1270.900024 1483.599976 L 1270.900024 1272.5 L 1248.199951 1272.5 Z"/>
    <path id="path22" fill="#f4a93f" stroke="none" d="M 1561.5 1272.5 C 1561.5 1322.978882 1441.557129 1363.900024 1293.599976 1363.900024 C 1145.642944 1363.900024 1025.699951 1322.978882 1025.699951 1272.5 C 1025.699951 1222.021118 1145.642944 1181.099976 1293.599976 1181.099976 C 1441.557129 1181.099976 1561.5 1222.021118 1561.5 1272.5 Z"/>
    <path id="path23" fill="#f4c23f" stroke="none" d="M 1293.599976 1330.300049 C 1229.099976 1330.300049 1167.900024 1322.199951 1121.400024 1307.5 C 1074.900024 1292.800049 1060.699951 1276.599976 1059.300049 1272.5 C 1060.699951 1268.5 1074.199951 1252.5 1121.400024 1237.599976 C 1168.599976 1222.699951 1229.099976 1214.699951 1293.599976 1214.699951 C 1358.099976 1214.699951 1419.199951 1222.800049 1465.699951 1237.599976 C 1512.199951 1252.400024 1526.5 1268.5 1527.800049 1272.5 C 1526.5 1276.599976 1513 1292.5 1465.699951 1307.5 C 1418.400024 1322.5 1358.099976 1330.300049 1293.599976 1330.300049 Z"/>
    <path id="path24" fill="#f8881b" stroke="none" d="M 1025.699951 1154.699951 L 1025.699951 1274.699951 C 1025.699951 1325.199951 1145.599976 1366.099976 1293.599976 1366.099976 C 1441.599976 1366.099976 1561.5 1325.199951 1561.5 1274.699951 L 1561.5 1154.699951 Z"/>
    <path id="path25" fill="#f08000" stroke="none" d="M 1293.599976 1338.400024 C 1145.599976 1338.400024 1025.699951 1297.400024 1025.699951 1247 L 1025.699951 1274.699951 C 1025.699951 1325.199951 1145.599976 1366.099976 1293.599976 1366.099976 C 1441.599976 1366.099976 1561.5 1325.199951 1561.5 1274.699951 L 1561.5 1247 C 1561.5 1297.400024 1441.599976 1338.400024 1293.599976 1338.400024 Z"/>
    <path id="path26" fill="#f08000" stroke="none" d="M 1429.800049 1353.400024 C 1437.599976 1351.900024 1445.199951 1350.199951 1452.5 1348.300049 L 1452.5 1154.699951 L 1429.800049 1154.699951 Z"/>
    <path id="path27" fill="#f08000" stroke="none" d="M 1339 1364.800049 C 1346.699951 1364.400024 1354.199951 1363.800049 1361.699951 1363.199951 L 1361.699951 1154.699951 L 1339 1154.699951 Z"/>
    <path id="path28" fill="#f08000" stroke="none" d="M 1520.599976 1323.300049 C 1528.709961 1319.01709 1536.322632 1313.852539 1543.300049 1307.900024 L 1543.300049 1154.699951 L 1520.599976 1154.699951 Z"/>
    <path id="path29" fill="#f08000" stroke="none" d="M 1157.400024 1353.5 C 1164.699951 1354.900024 1172.300049 1356.300049 1180.099976 1357.5 L 1180.099976 1154.699951 L 1157.400024 1154.699951 Z"/>
    <path id="path30" fill="#f08000" stroke="none" d="M 1066.599976 1323.300049 C 1073.951172 1327.248047 1081.531372 1330.754272 1089.300049 1333.800049 L 1089.300049 1154.699951 L 1066.599976 1154.699951 Z"/>
    <path id="path31" fill="#f08000" stroke="none" d="M 1248.199951 1364.800049 C 1255.699951 1365.300049 1263.199951 1365.599976 1270.900024 1365.800049 L 1270.900024 1154.699951 L 1248.199951 1154.699951 Z"/>
    <path id="path32" fill="#f4a93f" stroke="none" d="M 1561.5 1154.699951 C 1561.5 1205.178833 1441.557129 1246.099976 1293.599976 1246.099976 C 1145.642944 1246.099976 1025.699951 1205.178833 1025.699951 1154.699951 C 1025.699951 1104.221191 1145.642944 1063.300049 1293.599976 1063.300049 C 1441.557129 1063.300049 1561.5 1104.221191 1561.5 1154.699951 Z"/>
    <path id="path33" fill="#f4c23f" stroke="none" d="M 1293.599976 1212.5 C 1229.099976 1212.5 1167.900024 1204.400024 1121.400024 1189.599976 C 1074.900024 1174.800049 1060.699951 1158.699951 1059.300049 1154.699951 C 1060.699951 1150.599976 1074.199951 1134.699951 1121.400024 1119.699951 C 1168.599976 1104.699951 1229.099976 1096.900024 1293.599976 1096.900024 C 1358.099976 1096.900024 1419.199951 1105 1465.699951 1119.699951 C 1512.199951 1134.400024 1526.5 1150.599976 1527.800049 1154.699951 C 1526.5 1158.699951 1513 1174.599976 1465.699951 1189.599976 C 1418.400024 1204.599976 1358.099976 1212.5 1293.599976 1212.5 Z"/>
    <path id="path34" fill="#f8881b" stroke="none" d="M 1025.699951 1036.800049 L 1025.699951 1156.900024 C 1025.699951 1207.400024 1145.599976 1248.300049 1293.599976 1248.300049 C 1441.599976 1248.300049 1561.5 1207.400024 1561.5 1156.900024 L 1561.5 1036.800049 Z"/>
    <path id="path35" fill="#f08000" stroke="none" d="M 1293.599976 1220.5 C 1145.599976 1220.5 1025.699951 1179.599976 1025.699951 1129.099976 L 1025.699951 1156.900024 C 1025.699951 1207.400024 1145.599976 1248.300049 1293.599976 1248.300049 C 1441.599976 1248.300049 1561.5 1207.400024 1561.5 1156.900024 L 1561.5 1129.099976 C 1561.5 1179.599976 1441.599976 1220.5 1293.599976 1220.5 Z"/>
    <path id="path36" fill="#f08000" stroke="none" d="M 1429.800049 1235.599976 C 1437.599976 1234 1445.199951 1232.300049 1452.5 1230.5 L 1452.5 1036.800049 L 1429.800049 1036.800049 Z"/>
    <path id="path37" fill="#f08000" stroke="none" d="M 1339 1247 C 1346.699951 1246.5 1354.199951 1246 1361.699951 1245.300049 L 1361.699951 1036.800049 L 1339 1036.800049 Z"/>
    <path id="path38" fill="#f08000" stroke="none" d="M 1520.599976 1205.400024 C 1528.706055 1201.149902 1536.318726 1196.018921 1543.300049 1190.099976 L 1543.300049 1036.800049 L 1520.599976 1036.800049 Z"/>
    <path id="path39" fill="#f08000" stroke="none" d="M 1157.400024 1235.599976 C 1164.699951 1237.099976 1172.300049 1238.5 1180.099976 1239.699951 L 1180.099976 1036.800049 L 1157.400024 1036.800049 Z"/>
    <path id="path40" fill="#f08000" stroke="none" d="M 1066.599976 1205.5 C 1073.951172 1209.44812 1081.531372 1212.954346 1089.300049 1216 L 1089.300049 1036.800049 L 1066.599976 1036.800049 Z"/>
    <path id="path41" fill="#f08000" stroke="none" d="M 1248.199951 1247 L 1270.900024 1248 L 1270.900024 1036.800049 L 1248.199951 1036.800049 Z"/>
    <path id="path42" fill="#f4a93f" stroke="none" d="M 1561.5 1036.800049 C 1561.5 1087.278809 1441.557129 1128.199951 1293.599976 1128.199951 C 1145.642944 1128.199951 1025.699951 1087.278809 1025.699951 1036.800049 C 1025.699951 986.321167 1145.642944 945.400024 1293.599976 945.400024 C 1441.557129 945.400024 1561.5 986.321167 1561.5 1036.800049 Z"/>
    <path id="path43" fill="#f4c23f" stroke="none" d="M 1293.599976 1094.599976 C 1229.099976 1094.599976 1167.900024 1086.5 1121.400024 1071.800049 C 1074.900024 1057.099976 1060.699951 1040.900024 1059.300049 1036.800049 C 1060.699951 1032.800049 1074.199951 1016.900024 1121.400024 1001.900024 C 1168.599976 986.900024 1229.099976 979 1293.599976 979 C 1358.099976 979 1419.199951 987.099976 1465.699951 1001.900024 C 1512.199951 1016.700012 1526.5 1032.800049 1527.800049 1036.800049 C 1526.5 1040.900024 1513 1056.800049 1465.699951 1071.800049 C 1418.400024 1086.800049 1358.099976 1094.599976 1293.599976 1094.599976 Z"/>
    <path id="path44" fill="#f8881b" stroke="none" d="M 1025.699951 919 L 1025.699951 1039.099976 C 1025.699951 1089.5 1145.599976 1130.5 1293.599976 1130.5 C 1441.599976 1130.5 1561.5 1089.5 1561.5 1039.099976 L 1561.5 919 Z"/>
    <path id="path45" fill="#f08000" stroke="none" d="M 1293.599976 1102.699951 C 1145.599976 1102.699951 1025.699951 1061.800049 1025.699951 1011.299988 L 1025.699951 1039.099976 C 1025.699951 1089.5 1145.599976 1130.5 1293.599976 1130.5 C 1441.599976 1130.5 1561.5 1089.5 1561.5 1039.099976 L 1561.5 1011.299988 C 1561.5 1061.800049 1441.599976 1102.699951 1293.599976 1102.699951 Z"/>
    <path id="path46" fill="#f08000" stroke="none" d="M 1429.800049 1117.800049 C 1437.599976 1116.199951 1445.199951 1114.5 1452.5 1112.699951 L 1452.5 919 L 1429.800049 919 Z"/>
    <path id="path47" fill="#f08000" stroke="none" d="M 1339 1129.099976 C 1346.699951 1128.699951 1354.199951 1128.099976 1361.699951 1127.5 L 1361.699951 919 L 1339 919 Z"/>
    <path id="path48" fill="#f08000" stroke="none" d="M 1520.599976 1087.599976 C 1528.706055 1083.349854 1536.318726 1078.218872 1543.300049 1072.300049 L 1543.300049 919 L 1520.599976 919 Z"/>
    <path id="path49" fill="#f08000" stroke="none" d="M 1157.400024 1117.800049 C 1164.699951 1119.300049 1172.300049 1120.599976 1180.099976 1121.900024 L 1180.099976 919 L 1157.400024 919 Z"/>
    <path id="path50" fill="#f08000" stroke="none" d="M 1066.599976 1087.599976 C 1073.948608 1091.58252 1081.528809 1095.122192 1089.300049 1098.199951 L 1089.300049 919 L 1066.599976 919 Z"/>
    <path id="path51" fill="#f08000" stroke="none" d="M 1248.199951 1129.199951 C 1255.699951 1129.599976 1263.199951 1129.900024 1270.900024 1130.099976 L 1270.900024 919 L 1248.199951 919 Z"/>
    <path id="path52" fill="#f4a93f" stroke="none" d="M 1561.5 919 C 1561.5 969.47876 1441.557129 1010.400024 1293.599976 1010.400024 C 1145.642944 1010.400024 1025.699951 969.47876 1025.699951 919 C 1025.699951 868.52124 1145.642944 827.599976 1293.599976 827.599976 C 1441.557129 827.599976 1561.5 868.52124 1561.5 919 Z"/>
    <path id="path53" fill="#f4c23f" stroke="none" d="M 1293.599976 976.799988 C 1229.099976 976.799988 1167.900024 968.699951 1121.400024 953.900024 C 1074.900024 939.099976 1060.699951 923 1059.300049 919 C 1060.699951 914.900024 1074.199951 899 1121.400024 884 C 1168.599976 869 1229.099976 861.199951 1293.599976 861.199951 C 1358.099976 861.199951 1419.199951 869.300049 1465.699951 884 C 1512.199951 898.699951 1526.5 914.900024 1527.800049 919 C 1526.5 923 1513 939 1465.699951 953.900024 C 1418.400024 968.800049 1358.099976 976.799988 1293.599976 976.799988 Z"/>
    <path id="path54" fill="#f8881b" stroke="none" d="M 1025.699951 801.199951 L 1025.699951 921.199951 C 1025.699951 971.699951 1145.599976 1012.599976 1293.599976 1012.599976 C 1441.599976 1012.599976 1561.5 971.699951 1561.5 921.199951 L 1561.5 801.199951 Z"/>
    <path id="path55" fill="#f08000" stroke="none" d="M 1293.599976 984.900024 C 1145.599976 984.900024 1025.699951 943.900024 1025.699951 893.400024 L 1025.699951 921.199951 C 1025.699951 971.699951 1145.599976 1012.599976 1293.599976 1012.599976 C 1441.599976 1012.599976 1561.5 971.699951 1561.5 921.199951 L 1561.5 893.400024 C 1561.5 943.900024 1441.599976 984.900024 1293.599976 984.900024 Z"/>
    <path id="path56" fill="#f08000" stroke="none" d="M 1429.800049 999.900024 C 1437.599976 998.400024 1445.199951 996.700012 1452.5 994.799988 L 1452.5 801.199951 L 1429.800049 801.199951 Z"/>
    <path id="path57" fill="#f08000" stroke="none" d="M 1339 1011.299988 C 1346.699951 1010.900024 1354.199951 1010.299988 1361.699951 1009.599976 L 1361.699951 801.199951 L 1339 801.199951 Z"/>
    <path id="path58" fill="#f08000" stroke="none" d="M 1520.599976 969.800049 C 1528.688599 965.481567 1536.297607 960.31958 1543.300049 954.400024 L 1543.300049 801.199951 L 1520.599976 801.199951 Z"/>
    <path id="path59" fill="#f08000" stroke="none" d="M 1157.400024 999.900024 C 1164.699951 1001.400024 1172.300049 1002.799988 1180.099976 1004 L 1180.099976 801.199951 L 1157.400024 801.199951 Z"/>
    <path id="path60" fill="#f08000" stroke="none" d="M 1066.599976 969.800049 C 1073.951172 973.748047 1081.531372 977.254333 1089.300049 980.299988 L 1089.300049 801.199951 L 1066.599976 801.199951 Z"/>
    <path id="path61" fill="#f08000" stroke="none" d="M 1248.199951 1011.299988 C 1255.699951 1011.700012 1263.199951 1012.099976 1270.900024 1012.299988 L 1270.900024 801.199951 L 1248.199951 801.199951 Z"/>
    <path id="path62" fill="#f4a93f" stroke="none" d="M 1561.5 801.199951 C 1561.5 851.678833 1441.557129 892.599976 1293.599976 892.599976 C 1145.642944 892.599976 1025.699951 851.678833 1025.699951 801.199951 C 1025.699951 750.721191 1145.642944 709.800049 1293.599976 709.800049 C 1441.557129 709.800049 1561.5 750.721191 1561.5 801.199951 Z"/>
    <path id="path63" fill="#f4c23f" stroke="none" d="M 1293.599976 859 C 1229.099976 859 1167.900024 850.800049 1121.400024 836.099976 C 1074.900024 821.400024 1060.699951 805.199951 1059.300049 801.199951 C 1060.699951 797.099976 1074.199951 781.199951 1121.400024 766.199951 C 1168.599976 751.199951 1229.099976 743.400024 1293.599976 743.400024 C 1358.099976 743.400024 1419.199951 751.5 1465.699951 766.199951 C 1512.199951 780.900024 1526.5 797.099976 1527.800049 801.199951 C 1526.5 805.199951 1513 821.099976 1465.699951 836.099976 C 1418.400024 851.099976 1358.099976 859 1293.599976 859 Z"/>
    <path id="path64" fill="#f8881b" stroke="none" d="M 1025.699951 683.300049 L 1025.699951 803.400024 C 1025.699951 853.900024 1145.599976 894.800049 1293.599976 894.800049 C 1441.599976 894.800049 1561.5 853.900024 1561.5 803.400024 L 1561.5 683.300049 Z"/>
    <path id="path65" fill="#f08000" stroke="none" d="M 1293.599976 867 C 1145.599976 867 1025.699951 826.099976 1025.699951 775.599976 L 1025.699951 803.400024 C 1025.699951 853.900024 1145.599976 894.800049 1293.599976 894.800049 C 1441.599976 894.800049 1561.5 853.900024 1561.5 803.400024 L 1561.5 775.599976 C 1561.5 826.099976 1441.599976 867 1293.599976 867 Z"/>
    <path id="path66" fill="#f08000" stroke="none" d="M 1429.800049 882.099976 C 1437.599976 880.5 1445.199951 878.800049 1452.5 877 L 1452.5 683.300049 L 1429.800049 683.300049 Z"/>
    <path id="path67" fill="#f08000" stroke="none" d="M 1339 893.5 C 1346.699951 893 1354.199951 892.5 1361.699951 891.800049 L 1361.699951 683.300049 L 1339 683.300049 Z"/>
    <path id="path68" fill="#f08000" stroke="none" d="M 1520.599976 851.900024 C 1528.706055 847.649902 1536.318726 842.518921 1543.300049 836.599976 L 1543.300049 683.300049 L 1520.599976 683.300049 Z"/>
    <path id="path69" fill="#f08000" stroke="none" d="M 1157.400024 882.099976 C 1164.699951 883.599976 1172.300049 885 1180.099976 886.199951 L 1180.099976 683.300049 L 1157.400024 683.300049 Z"/>
    <path id="path70" fill="#f08000" stroke="none" d="M 1066.599976 852 C 1073.951172 855.94812 1081.531372 859.454346 1089.300049 862.5 L 1089.300049 683.300049 L 1066.599976 683.300049 Z"/>
    <path id="path71" fill="#f08000" stroke="none" d="M 1248.199951 893.5 L 1270.900024 894.5 L 1270.900024 683.300049 L 1248.199951 683.300049 Z"/>
    <path id="path72" fill="#f4a93f" stroke="none" d="M 1561.5 683.300049 C 1561.5 733.778809 1441.557129 774.699951 1293.599976 774.699951 C 1145.642944 774.699951 1025.699951 733.778809 1025.699951 683.300049 C 1025.699951 632.821167 1145.642944 591.900024 1293.599976 591.900024 C 1441.557129 591.900024 1561.5 632.821167 1561.5 683.300049 Z"/>
    <path id="path73" fill="#f4c23f" stroke="none" d="M 1293.599976 741.099976 C 1229.099976 741.099976 1167.900024 733 1121.400024 718.300049 C 1074.900024 703.599976 1060.699951 687.400024 1059.300049 683.300049 C 1060.699951 679.300049 1074.199951 663.400024 1121.400024 648.400024 C 1168.599976 633.400024 1229.099976 625.5 1293.599976 625.5 C 1358.099976 625.5 1419.199951 633.599976 1465.699951 648.400024 C 1512.199951 663.199951 1526.5 679.300049 1527.800049 683.300049 C 1526.5 687.400024 1513 703.300049 1465.699951 718.300049 C 1418.400024 733.300049 1358.099976 741.099976 1293.599976 741.099976 Z"/>
    <path id="path74" fill="#f8881b" stroke="none" d="M 461.299988 1390.300049 L 461.299988 1510.400024 C 461.299988 1560.900024 581.200012 1601.800049 729.200012 1601.800049 C 877.200012 1601.800049 997.099976 1560.900024 997.099976 1510.400024 L 997.099976 1390.300049 Z"/>
    <path id="path75" fill="#f08000" stroke="none" d="M 729.200012 1574 C 581.200012 1574 461.299988 1533.099976 461.299988 1482.599976 L 461.299988 1510.400024 C 461.299988 1560.900024 581.200012 1601.800049 729.200012 1601.800049 C 877.200012 1601.800049 997.099976 1560.900024 997.099976 1510.400024 L 997.099976 1482.599976 C 997.099976 1533.099976 877.200012 1574 729.200012 1574 Z"/>
    <path id="path76" fill="#f08000" stroke="none" d="M 865.400024 1589.099976 C 873.200012 1587.5 880.799988 1585.800049 888.099976 1584 L 888.099976 1390.300049 L 865.400024 1390.300049 Z"/>
    <path id="path77" fill="#f08000" stroke="none" d="M 774.599976 1600.5 C 782.299988 1600 789.799988 1599.5 797.299988 1598.800049 L 797.299988 1390.300049 L 774.599976 1390.300049 Z"/>
    <path id="path78" fill="#f08000" stroke="none" d="M 956.200012 1559 C 964.288574 1554.681519 971.897583 1549.519531 978.900024 1543.599976 L 978.900024 1390.300049 L 956.200012 1390.300049 Z"/>
    <path id="path79" fill="#f08000" stroke="none" d="M 593 1589.099976 C 600.400024 1590.599976 607.900024 1592 615.700012 1593.199951 L 615.700012 1390.300049 L 593 1390.300049 Z"/>
    <path id="path80" fill="#f08000" stroke="none" d="M 502.200012 1559 C 509.551239 1562.94812 517.131348 1566.454346 524.900024 1569.5 L 524.900024 1390.300049 L 502.200012 1390.300049 Z"/>
    <path id="path81" fill="#f08000" stroke="none" d="M 683.799988 1600.5 C 691.299988 1600.900024 698.799988 1601.300049 706.5 1601.5 L 706.5 1390.300049 L 683.799988 1390.300049 Z"/>
    <path id="path82" fill="#f4a93f" stroke="none" d="M 997.099976 1390.300049 C 997.099976 1440.778809 877.157104 1481.699951 729.200012 1481.699951 C 581.24292 1481.699951 461.299988 1440.778809 461.299988 1390.300049 C 461.299988 1339.821167 581.24292 1298.900024 729.200012 1298.900024 C 877.157104 1298.900024 997.099976 1339.821167 997.099976 1390.300049 Z"/>
    <path id="path83" fill="#f4c23f" stroke="none" d="M 729.200012 1448.099976 C 664.700012 1448.099976 603.5 1440 557 1425.300049 C 510.5 1410.599976 496.299988 1394.400024 494.899994 1390.300049 C 496.299988 1386.300049 509.799988 1370.400024 557 1355.400024 C 604.200012 1340.400024 664.700012 1332.5 729.200012 1332.5 C 793.700012 1332.5 854.900024 1340.699951 901.400024 1355.400024 C 947.900024 1370.099976 962.099976 1386.300049 963.5 1390.300049 C 962.099976 1394.400024 948.599976 1410.300049 901.400024 1425.300049 C 854.200012 1440.300049 793.700012 1448.099976 729.200012 1448.099976 Z"/>
    <path id="path84" fill="#f8881b" stroke="none" d="M 461.299988 1272.5 L 461.299988 1392.599976 C 461.299988 1443 581.200012 1484 729.200012 1484 C 877.200012 1484 997.099976 1443 997.099976 1392.599976 L 997.099976 1272.5 Z"/>
    <path id="path85" fill="#f08000" stroke="none" d="M 729.200012 1456.199951 C 581.200012 1456.199951 461.299988 1415.300049 461.299988 1364.800049 L 461.299988 1392.599976 C 461.299988 1443 581.200012 1484 729.200012 1484 C 877.200012 1484 997.099976 1443 997.099976 1392.599976 L 997.099976 1364.800049 C 997.099976 1415.300049 877.200012 1456.199951 729.200012 1456.199951 Z"/>
    <path id="path86" fill="#f08000" stroke="none" d="M 865.400024 1471.300049 C 873.200012 1469.699951 880.799988 1468 888.099976 1466.199951 L 888.099976 1272.5 L 865.400024 1272.5 Z"/>
    <path id="path87" fill="#f08000" stroke="none" d="M 774.599976 1482.699951 C 782.299988 1482.199951 789.799988 1481.699951 797.299988 1481 L 797.299988 1272.5 L 774.599976 1272.5 Z"/>
    <path id="path88" fill="#f08000" stroke="none" d="M 956.200012 1441.099976 C 964.30603 1436.849854 971.918701 1431.718872 978.900024 1425.800049 L 978.900024 1272.5 L 956.200012 1272.5 Z"/>
    <path id="path89" fill="#f08000" stroke="none" d="M 593 1471.300049 C 600.400024 1472.800049 607.900024 1474.099976 615.700012 1475.400024 L 615.700012 1272.5 L 593 1272.5 Z"/>
    <path id="path90" fill="#f08000" stroke="none" d="M 502.200012 1441.099976 C 509.548645 1445.08252 517.128845 1448.622192 524.900024 1451.699951 L 524.900024 1272.5 L 502.200012 1272.5 Z"/>
    <path id="path91" fill="#f08000" stroke="none" d="M 683.799988 1482.699951 C 691.299988 1483.099976 698.799988 1483.400024 706.5 1483.599976 L 706.5 1272.5 L 683.799988 1272.5 Z"/>
    <path id="path92" fill="#f4a93f" stroke="none" d="M 997.099976 1272.5 C 997.099976 1322.978882 877.157104 1363.900024 729.200012 1363.900024 C 581.24292 1363.900024 461.299988 1322.978882 461.299988 1272.5 C 461.299988 1222.021118 581.24292 1181.099976 729.200012 1181.099976 C 877.157104 1181.099976 997.099976 1222.021118 997.099976 1272.5 Z"/>
    <path id="path93" fill="#f4c23f" stroke="none" d="M 729.200012 1330.300049 C 664.700012 1330.300049 603.5 1322.199951 557 1307.5 C 510.5 1292.800049 496.299988 1276.599976 494.899994 1272.5 C 496.299988 1268.5 509.799988 1252.5 557 1237.599976 C 604.200012 1222.699951 664.700012 1214.699951 729.200012 1214.699951 C 793.700012 1214.699951 854.900024 1222.800049 901.400024 1237.599976 C 947.900024 1252.400024 962.099976 1268.5 963.5 1272.5 C 962.099976 1276.599976 948.599976 1292.5 901.400024 1307.5 C 854.200012 1322.5 793.700012 1330.300049 729.200012 1330.300049 Z"/>
    <path id="path94" fill="#f8881b" stroke="none" d="M 461.299988 1154.699951 L 461.299988 1274.699951 C 461.299988 1325.199951 581.200012 1366.099976 729.200012 1366.099976 C 877.200012 1366.099976 997.099976 1325.199951 997.099976 1274.699951 L 997.099976 1154.699951 Z"/>
    <path id="path95" fill="#f08000" stroke="none" d="M 729.200012 1338.400024 C 581.200012 1338.400024 461.299988 1297.400024 461.299988 1247 L 461.299988 1274.699951 C 461.299988 1325.199951 581.200012 1366.099976 729.200012 1366.099976 C 877.200012 1366.099976 997.099976 1325.199951 997.099976 1274.699951 L 997.099976 1247 C 997.099976 1297.400024 877.200012 1338.400024 729.200012 1338.400024 Z"/>
    <path id="path96" fill="#f08000" stroke="none" d="M 865.400024 1353.400024 C 873.200012 1351.900024 880.799988 1350.199951 888.099976 1348.300049 L 888.099976 1154.699951 L 865.400024 1154.699951 Z"/>
    <path id="path97" fill="#f08000" stroke="none" d="M 774.599976 1364.800049 C 782.299988 1364.400024 789.799988 1363.800049 797.299988 1363.199951 L 797.299988 1154.699951 L 774.599976 1154.699951 Z"/>
    <path id="path98" fill="#f08000" stroke="none" d="M 956.200012 1323.300049 C 964.309937 1319.01709 971.922668 1313.852539 978.900024 1307.900024 L 978.900024 1154.699951 L 956.200012 1154.699951 Z"/>
    <path id="path99" fill="#f08000" stroke="none" d="M 593 1353.5 C 600.400024 1354.900024 607.900024 1356.300049 615.700012 1357.5 L 615.700012 1154.699951 L 593 1154.699951 Z"/>
    <path id="path100" fill="#f08000" stroke="none" d="M 502.200012 1323.300049 C 509.551239 1327.248047 517.131348 1330.754272 524.900024 1333.800049 L 524.900024 1154.699951 L 502.200012 1154.699951 Z"/>
    <path id="path101" fill="#f08000" stroke="none" d="M 683.799988 1364.800049 C 691.299988 1365.300049 698.799988 1365.599976 706.5 1365.800049 L 706.5 1154.699951 L 683.799988 1154.699951 Z"/>
    <path id="path102" fill="#f4a93f" stroke="none" d="M 997.099976 1154.699951 C 997.099976 1205.178833 877.157104 1246.099976 729.200012 1246.099976 C 581.24292 1246.099976 461.299988 1205.178833 461.299988 1154.699951 C 461.299988 1104.221191 581.24292 1063.300049 729.200012 1063.300049 C 877.157104 1063.300049 997.099976 1104.221191 997.099976 1154.699951 Z"/>
    <path id="path103" fill="#f4c23f" stroke="none" d="M 729.200012 1212.5 C 664.700012 1212.5 603.5 1204.400024 557 1189.599976 C 510.5 1174.800049 496.299988 1158.699951 494.899994 1154.699951 C 496.299988 1150.599976 509.799988 1134.699951 557 1119.699951 C 604.200012 1104.699951 664.700012 1096.900024 729.200012 1096.900024 C 793.700012 1096.900024 854.900024 1105 901.400024 1119.699951 C 947.900024 1134.400024 962.099976 1150.599976 963.5 1154.699951 C 962.099976 1158.699951 948.599976 1174.599976 901.400024 1189.599976 C 854.200012 1204.599976 793.700012 1212.5 729.200012 1212.5 Z"/>
    <path id="path104" fill="#f8881b" stroke="none" d="M 461.299988 1036.800049 L 461.299988 1156.900024 C 461.299988 1207.400024 581.200012 1248.300049 729.200012 1248.300049 C 877.200012 1248.300049 997.099976 1207.400024 997.099976 1156.900024 L 997.099976 1036.800049 Z"/>
    <path id="path105" fill="#f08000" stroke="none" d="M 729.200012 1220.5 C 581.200012 1220.5 461.299988 1179.599976 461.299988 1129.099976 L 461.299988 1156.900024 C 461.299988 1207.400024 581.200012 1248.300049 729.200012 1248.300049 C 877.200012 1248.300049 997.099976 1207.400024 997.099976 1156.900024 L 997.099976 1129.099976 C 997.099976 1179.599976 877.200012 1220.5 729.200012 1220.5 Z"/>
    <path id="path106" fill="#f08000" stroke="none" d="M 865.400024 1235.599976 C 873.200012 1234 880.799988 1232.300049 888.099976 1230.5 L 888.099976 1036.800049 L 865.400024 1036.800049 Z"/>
    <path id="path107" fill="#f08000" stroke="none" d="M 774.599976 1247 C 782.299988 1246.5 789.799988 1246 797.299988 1245.300049 L 797.299988 1036.800049 L 774.599976 1036.800049 Z"/>
    <path id="path108" fill="#f08000" stroke="none" d="M 956.200012 1205.400024 C 964.30603 1201.149902 971.918701 1196.018921 978.900024 1190.099976 L 978.900024 1036.800049 L 956.200012 1036.800049 Z"/>
    <path id="path109" fill="#f08000" stroke="none" d="M 593 1235.599976 C 600.400024 1237.099976 607.900024 1238.5 615.700012 1239.699951 L 615.700012 1036.800049 L 593 1036.800049 Z"/>
    <path id="path110" fill="#f08000" stroke="none" d="M 502.200012 1205.5 C 509.551239 1209.44812 517.131348 1212.954346 524.900024 1216 L 524.900024 1036.800049 L 502.200012 1036.800049 Z"/>
    <path id="path111" fill="#f08000" stroke="none" d="M 683.799988 1247 L 706.5 1248 L 706.5 1036.800049 L 683.799988 1036.800049 Z"/>
    <path id="path112" fill="#f4a93f" stroke="none" d="M 997.099976 1036.800049 C 997.099976 1087.278809 877.157104 1128.199951 729.200012 1128.199951 C 581.24292 1128.199951 461.299988 1087.278809 461.299988 1036.800049 C 461.299988 986.321167 581.24292 945.400024 729.200012 945.400024 C 877.157104 945.400024 997.099976 986.321167 997.099976 1036.800049 Z"/>
    <path id="path113" fill="#f4c23f" stroke="none" d="M 729.200012 1094.599976 C 664.700012 1094.599976 603.5 1086.5 557 1071.800049 C 510.5 1057.099976 496.299988 1040.900024 494.899994 1036.800049 C 496.299988 1032.800049 509.799988 1016.900024 557 1001.900024 C 604.200012 986.900024 664.700012 979 729.200012 979 C 793.700012 979 854.900024 987.099976 901.400024 1001.900024 C 947.900024 1016.700012 962.099976 1032.800049 963.5 1036.800049 C 962.099976 1040.900024 948.599976 1056.800049 901.400024 1071.800049 C 854.200012 1086.800049 793.700012 1094.599976 729.200012 1094.599976 Z"/>
    <path id="path114" fill="#f8881b" stroke="none" d="M 461.299988 919 L 461.299988 1039.099976 C 461.299988 1089.5 581.200012 1130.5 729.200012 1130.5 C 877.200012 1130.5 997.099976 1089.5 997.099976 1039.099976 L 997.099976 919 Z"/>
    <path id="path115" fill="#f08000" stroke="none" d="M 729.200012 1102.699951 C 581.200012 1102.699951 461.299988 1061.800049 461.299988 1011.299988 L 461.299988 1039.099976 C 461.299988 1089.5 581.200012 1130.5 729.200012 1130.5 C 877.200012 1130.5 997.099976 1089.5 997.099976 1039.099976 L 997.099976 1011.299988 C 997.099976 1061.800049 877.200012 1102.699951 729.200012 1102.699951 Z"/>
    <path id="path116" fill="#f08000" stroke="none" d="M 865.400024 1117.800049 C 873.200012 1116.199951 880.799988 1114.5 888.099976 1112.699951 L 888.099976 919 L 865.400024 919 Z"/>
    <path id="path117" fill="#f08000" stroke="none" d="M 774.599976 1129.099976 C 782.299988 1128.699951 789.799988 1128.099976 797.299988 1127.5 L 797.299988 919 L 774.599976 919 Z"/>
    <path id="path118" fill="#f08000" stroke="none" d="M 956.200012 1087.599976 C 964.30603 1083.349854 971.918701 1078.218872 978.900024 1072.300049 L 978.900024 919 L 956.200012 919 Z"/>
    <path id="path119" fill="#f08000" stroke="none" d="M 593 1117.800049 C 600.400024 1119.300049 607.900024 1120.599976 615.700012 1121.900024 L 615.700012 919 L 593 919 Z"/>
    <path id="path120" fill="#f08000" stroke="none" d="M 502.200012 1087.599976 C 509.548645 1091.58252 517.128845 1095.122192 524.900024 1098.199951 L 524.900024 919 L 502.200012 919 Z"/>
    <path id="path121" fill="#f08000" stroke="none" d="M 683.799988 1129.199951 C 691.299988 1129.599976 698.799988 1129.900024 706.5 1130.099976 L 706.5 919 L 683.799988 919 Z"/>
    <path id="path122" fill="#f4a93f" stroke="none" d="M 997.099976 919 C 997.099976 969.47876 877.157104 1010.400024 729.200012 1010.400024 C 581.24292 1010.400024 461.299988 969.47876 461.299988 919 C 461.299988 868.52124 581.24292 827.599976 729.200012 827.599976 C 877.157104 827.599976 997.099976 868.52124 997.099976 919 Z"/>
    <path id="path123" fill="#f4c23f" stroke="none" d="M 729.200012 976.799988 C 664.700012 976.799988 603.5 968.699951 557 953.900024 C 510.5 939.099976 496.299988 923 494.899994 919 C 496.299988 914.900024 509.799988 899 557 884 C 604.200012 869 664.700012 861.199951 729.200012 861.199951 C 793.700012 861.199951 854.900024 869.300049 901.400024 884 C 947.900024 898.699951 962.099976 914.900024 963.5 919 C 962.099976 923 948.599976 939 901.400024 953.900024 C 854.200012 968.800049 793.700012 976.799988 729.200012 976.799988 Z"/>
    <path id="path124" fill="#f8881b" stroke="none" d="M 461.299988 801.199951 L 461.299988 921.199951 C 461.299988 971.699951 581.200012 1012.599976 729.200012 1012.599976 C 877.200012 1012.599976 997.099976 971.699951 997.099976 921.199951 L 997.099976 801.199951 Z"/>
    <path id="path125" fill="#f08000" stroke="none" d="M 729.200012 984.900024 C 581.200012 984.900024 461.299988 943.900024 461.299988 893.400024 L 461.299988 921.199951 C 461.299988 971.699951 581.200012 1012.599976 729.200012 1012.599976 C 877.200012 1012.599976 997.099976 971.699951 997.099976 921.199951 L 997.099976 893.400024 C 997.099976 943.900024 877.200012 984.900024 729.200012 984.900024 Z"/>
    <path id="path126" fill="#f08000" stroke="none" d="M 865.400024 999.900024 C 873.200012 998.400024 880.799988 996.700012 888.099976 994.799988 L 888.099976 801.199951 L 865.400024 801.199951 Z"/>
    <path id="path127" fill="#f08000" stroke="none" d="M 774.599976 1011.299988 C 782.299988 1010.900024 789.799988 1010.299988 797.299988 1009.599976 L 797.299988 801.199951 L 774.599976 801.199951 Z"/>
    <path id="path128" fill="#f08000" stroke="none" d="M 956.200012 969.800049 C 964.288574 965.481567 971.897583 960.31958 978.900024 954.400024 L 978.900024 801.199951 L 956.200012 801.199951 Z"/>
    <path id="path129" fill="#f08000" stroke="none" d="M 593 999.900024 C 600.400024 1001.400024 607.900024 1002.799988 615.700012 1004 L 615.700012 801.199951 L 593 801.199951 Z"/>
    <path id="path130" fill="#f08000" stroke="none" d="M 502.200012 969.800049 C 509.551239 973.748047 517.131348 977.254333 524.900024 980.299988 L 524.900024 801.199951 L 502.200012 801.199951 Z"/>
    <path id="path131" fill="#f08000" stroke="none" d="M 683.799988 1011.299988 C 691.299988 1011.700012 698.799988 1012.099976 706.5 1012.299988 L 706.5 801.199951 L 683.799988 801.199951 Z"/>
    <path id="path132" fill="#f4a93f" stroke="none" d="M 997.099976 801.199951 C 997.099976 851.678833 877.157104 892.599976 729.200012 892.599976 C 581.24292 892.599976 461.299988 851.678833 461.299988 801.199951 C 461.299988 750.721191 581.24292 709.800049 729.200012 709.800049 C 877.157104 709.800049 997.099976 750.721191 997.099976 801.199951 Z"/>
    <path id="path133" fill="#f4c23f" stroke="none" d="M 729.200012 859 C 664.700012 859 603.5 850.800049 557 836.099976 C 510.5 821.400024 496.299988 805.199951 494.899994 801.199951 C 496.299988 797.099976 509.799988 781.199951 557 766.199951 C 604.200012 751.199951 664.700012 743.400024 729.200012 743.400024 C 793.700012 743.400024 854.900024 751.5 901.400024 766.199951 C 947.900024 780.900024 962.099976 797.099976 963.5 801.199951 C 962.099976 805.199951 948.599976 821.099976 901.400024 836.099976 C 854.200012 851.099976 793.700012 859 729.200012 859 Z"/>
    <path id="path134" fill="#cf6b00" stroke="none" d="M 1025.699951 1088.099976 L 1025.699951 1274.699951 L 1025.699951 1274.699951 L 1025.699951 1510.400024 C 1025.699951 1530.599976 1044.900024 1549.300049 1077.400024 1564.400024 L 1077.400024 1564.400024 C 1126.099976 1587.099976 1204.800049 1601.800049 1293.599976 1601.800049 C 1302.199951 1601.800049 1310.699951 1601.699951 1319.199951 1601.400024 C 1341.541626 1553.492798 1353.080566 1501.26062 1353 1448.400024 C 1353 1260.199951 1209.300049 1105.5 1025.699951 1088.099976 Z"/>
    <path id="path135" fill="#cf6b00" stroke="none" d="M 774.599976 1600.5 L 774.599976 1600.5 L 780 1600.199951 L 780.599976 1600.199951 L 785.599976 1599.900024 L 786.599976 1599.900024 L 791.400024 1599.5 L 792.5 1599.5 C 818.946472 1597.406372 845.23291 1593.63208 871.200012 1588.199951 L 871.200012 1588.199951 L 876.900024 1587 L 877 1587 L 882.5 1585.800049 C 882.555237 1585.800049 882.599976 1585.755249 882.599976 1585.699951 C 915.400024 1577.900024 942.900024 1567.599976 962.599976 1555.699951 L 962.599976 1555.699951 L 965.599976 1553.800049 L 965.700012 1553.800049 L 968.5 1551.900024 L 968.700012 1551.900024 L 971.299988 1550.099976 L 971.5 1550.099976 L 973.900024 1548.199951 L 974.099976 1548.199951 L 976.5 1546.300049 L 976.599976 1546.300049 L 978.900024 1544.400024 L 978.900024 1544.400024 C 990.599976 1534.099976 997.099976 1522.900024 997.099976 1511.199951 L 997.099976 1274.699951 L 997.099976 1274.699951 L 997.099976 1086.5 L 991 1086.5 C 791 1086.5 629 1248.599976 629 1448.5 C 628.950378 1500.423828 640.06842 1551.750977 661.599976 1599 C 683.200012 1600.900024 705.900024 1601.900024 729.200012 1601.900024 C 744.700012 1601.800049 759.900024 1601.400024 774.599976 1600.5 Z"/>
    <path id="path136" fill="#f8881b" stroke="none" d="M 1294.599976 1448.400024 C 1294.599976 1616.073608 1158.673706 1752 991 1752 C 823.326355 1752 687.400024 1616.073608 687.400024 1448.400024 C 687.400024 1280.726318 823.326355 1144.800049 991 1144.800049 C 1158.673706 1144.800049 1294.599976 1280.726318 1294.599976 1448.400024 Z"/>
    <path id="path137" fill="#f08000" stroke="none" d="M 1259.300049 1448.400024 C 1259.300049 1596.578003 1139.177979 1716.699951 991 1716.699951 C 842.822021 1716.699951 722.700012 1596.578003 722.700012 1448.400024 C 722.700012 1300.222046 842.822021 1180.099976 991 1180.099976 C 1139.177979 1180.099976 1259.300049 1300.222046 1259.300049 1448.400024 Z"/>
    <path id="path138" fill="#f4c23f" stroke="none" d="M 1229 1448.400024 C 1229 1579.84375 1122.443726 1686.400024 991 1686.400024 C 859.556213 1686.400024 753 1579.84375 753 1448.400024 C 753 1316.956177 859.556213 1210.400024 991 1210.400024 C 1122.443726 1210.400024 1229 1316.956177 1229 1448.400024 Z"/>
    <path id="path139" fill="#fad564" stroke="none" d="M 1206.900024 1398.699951 C 1212.5 1398.699951 1218.099976 1398.400024 1223.599976 1398 C 1201.400024 1294.800049 1112.199951 1216.5 1003.799988 1210.699951 C 1011.799988 1315.800049 1099.699951 1398.699951 1206.900024 1398.699951 Z"/>
    <path id="path140" fill="#f4c23f" stroke="none" d="M 1566.699951 962.099976 C 1563.199951 960.900024 1559.800049 960 1556.300049 959.099976 C 1549.382202 957.316406 1542.371704 955.914307 1535.300049 954.900024 L 1531.599976 954.300049 C 1517.768066 952.408691 1506.891357 941.531982 1505 927.699951 C 1504.800049 926.5 1504.699951 925.300049 1504.5 924.099976 C 1503.43335 917.099976 1502.033366 910.099976 1500.300049 903.099976 C 1499.43335 899.633341 1498.43335 896.133341 1497.300049 892.599976 C 1496.099976 889.099976 1494.900024 885.599976 1493.300049 882.099976 C 1491.825073 885.532471 1490.523438 889.036865 1489.400024 892.599976 C 1488.266642 896.133341 1487.266642 899.633341 1486.400024 903.099976 C 1484.616333 910.017822 1483.214233 917.02832 1482.199951 924.099976 C 1482 925.199951 1481.800049 926.400024 1481.699951 927.599976 C 1479.765747 941.447754 1468.85498 952.317749 1455 954.199951 L 1451.400024 954.699951 C 1444.400024 955.800049 1437.400024 957.199951 1430.400024 959 C 1426.900024 959.900024 1423.400024 960.800049 1419.900024 962 C 1416.32019 963.113525 1412.813354 964.449463 1409.400024 966 C 1412.813354 967.550537 1416.32019 968.886475 1419.900024 970 C 1423.400024 971.199951 1426.900024 972.199951 1430.400024 973.099976 C 1437.400024 974.900024 1444.400024 976.200012 1451.400024 977.299988 L 1454.900024 977.799988 C 1468.763794 979.701965 1479.650024 990.62915 1481.5 1004.5 C 1481.699951 1005.599976 1481.900024 1006.799988 1482 1008 C 1483.099976 1015 1484.5 1021.900024 1486.300049 1028.900024 C 1487.233317 1032.433309 1488.233317 1035.933309 1489.300049 1039.400024 C 1490.5 1042.900024 1491.699951 1046.400024 1493.300049 1049.900024 C 1494.850464 1046.486572 1496.186401 1042.979858 1497.300049 1039.400024 C 1498.5 1035.900024 1499.5 1032.400024 1500.400024 1028.900024 C 1502.18335 1022.015869 1503.585571 1015.038635 1504.599976 1008 C 1504.800049 1006.799988 1505 1005.599976 1505.099976 1004.400024 C 1506.99292 990.513306 1517.91333 979.592957 1531.800049 977.700012 L 1535.300049 977.200012 C 1542.300049 976.066671 1549.300049 974.666667 1556.300049 973 C 1559.800049 972.099976 1563.199951 971.099976 1566.699951 969.900024 C 1570.278198 968.821045 1573.785034 967.518433 1577.199951 966 C 1573.785034 964.481567 1570.278198 963.178955 1566.699951 962.099976 Z"/>
    <path id="path141" fill="#f4c23f" stroke="none" d="M 587 1014.5 C 583.5 1013.299988 580 1012.299988 576.5 1011.400024 C 569.5 1009.733358 562.5 1008.333354 555.5 1007.200012 L 551.900024 1006.700012 C 538.045105 1004.817749 527.134216 993.947754 525.200012 980.099976 C 525.099976 978.900024 524.900024 977.599976 524.700012 976.400024 C 523.599976 969.400024 522.200012 962.5 520.5 955.5 C 519.633341 952.033366 518.633341 948.533366 517.5 945 C 516.299988 941.5 515.099976 938 513.5 934.5 C 512.025085 937.932495 510.723419 941.437012 509.600006 945 C 508.466665 948.533366 507.466665 952.033366 506.600006 955.5 C 504.799988 962.5 503.5 969.400024 502.399994 976.400024 C 502.200012 977.599976 502 978.799988 501.899994 979.900024 C 500.007019 993.786682 489.08667 1004.707031 475.200012 1006.599976 L 471.600006 1007.099976 C 464.600006 1008.200012 457.600006 1009.5 450.600006 1011.299988 C 447.100006 1012.200012 443.600006 1013.200012 440.100006 1014.400024 C 436.520203 1015.513611 433.013367 1016.849487 429.600006 1018.400024 C 433.013367 1019.9505 436.520203 1021.286438 440.100006 1022.400024 C 443.600006 1023.599976 447.100006 1024.5 450.600006 1025.400024 C 457.600006 1027.199951 464.600006 1028.599976 471.600006 1029.699951 L 475.100006 1030.199951 C 488.970856 1032.049927 499.89801 1042.936157 501.799988 1056.800049 C 501.899994 1058 502.100006 1059.199951 502.299988 1060.300049 C 503.31427 1067.371704 504.71637 1074.382202 506.5 1081.300049 C 507.366659 1084.833333 508.366659 1088.333333 509.5 1091.800049 C 510.700012 1095.300049 511.899994 1098.800049 513.5 1102.300049 C 515.093628 1098.904785 516.430725 1095.39502 517.5 1091.800049 C 518.700012 1088.300049 519.700012 1084.800049 520.599976 1081.300049 C 522.383606 1074.382202 523.785706 1067.371704 524.799988 1060.300049 C 525 1059.099976 525.200012 1057.900024 525.299988 1056.699951 C 527.225098 1042.829224 538.129272 1031.925049 552 1030 L 555.5 1029.5 C 562.571655 1028.485718 569.582214 1027.083618 576.5 1025.300049 C 580 1024.400024 583.5 1023.5 587 1022.299988 C 590.551025 1021.237122 594.025696 1019.934143 597.400024 1018.400024 C 594.025696 1016.865845 590.551025 1015.562866 587 1014.5 Z"/>
</svg>
